<svg xmlns="http://www.w3.org/2000/svg" version="1.1" xmlns:xlink="http://www.w3.org/1999/xlink" xmlns:svgjs="http://svgjs.dev/svgjs" width="128" height="128" viewBox="0 0 128 128"><g transform="matrix(0.8046875,0,0,0.8046875,12.483274134714705,6.675112342477611)"><svg viewBox="0 0 86 96" data-background-color="#ffffff" preserveAspectRatio="xMidYMid meet" height="142" width="128" xmlns="http://www.w3.org/2000/svg" xmlns:xlink="http://www.w3.org/1999/xlink"><g id="tight-bounds" transform="matrix(1,0,0,1,0.10374532686557814,0.25950000000000273)"><svg viewBox="0 0 85.93289965535685 95.481" height="95.481" width="85.93289965535685"><g><svg viewBox="0 0 85.93289965535685 95.481" height="95.481" width="85.93289965535685"><g><svg viewBox="0 0 85.93289965535685 95.481" height="95.481" width="85.93289965535685"><g id="textblocktransform"><svg viewBox="0 0 85.93289965535685 95.481" height="95.481" width="85.93289965535685" id="textblock"><g><svg viewBox="0 0 85.93289965535685 95.481" height="95.481" width="85.93289965535685"><g><svg viewBox="0 0 85.93289965535685 95.481" height="95.481" width="85.93289965535685"><g><svg xmlns="http://www.w3.org/2000/svg" viewBox="12 7.9999996390453045 72.0000003609547 80.0000007219094" x="0" y="0" height="95.481" width="85.93289965535685" class="icon-icon-0" data-fill-palette-color="accent" id="icon-0"><g fill="#3363ff" data-fill-palette-color="accent"><path d="M82 8H20a8.009 8.009 0 0 0-8 8V80a8.009 8.009 0 0 0 8 8H82a1.999 1.999 0 0 0 2-2V10A1.999 1.999 0 0 0 82 8ZM20 12H80V72H20a7.907 7.907 0 0 0-4 1.113V16A4.004 4.004 0 0 1 20 12ZM80 84H20a4 4 0 0 1 0-8H80Z" fill="#3363ff" data-fill-palette-color="accent"></path><path d="M32 41.959V58a1.999 1.999 0 0 0 2 2H62a1.999 1.999 0 0 0 2-2V41.959A9.973 9.973 0 0 0 58 24a9.895 9.895 0 0 0-1.699 0.213 10.283 10.283 0 0 0-16.602 0A9.895 9.895 0 0 0 38 24a9.973 9.973 0 0 0-6 17.959ZM36 56V52H60v4Zm1.666-27.966A12.819 12.819 0 0 0 37 32a2 2 0 0 0 4 0c0-4.412 3.141-8 7-8s7 3.588 7 8a2 2 0 0 0 4 0 12.819 12.819 0 0 0-0.666-3.966 5.959 5.959 0 0 1 2.658 11.128A2.001 2.001 0 0 0 60 40.891V48H36V40.891a2.001 2.001 0 0 0-0.992-1.729A5.959 5.959 0 0 1 37.666 28.034Z" fill="#3363ff" data-fill-palette-color="accent"></path></g></svg></g></svg></g></svg></g></svg></g></svg></g></svg></g><defs></defs></svg><rect width="85.93289965535685" height="95.481" fill="none" stroke="none" visibility="hidden"></rect></g></svg></g></svg>