<svg xmlns="http://www.w3.org/2000/svg" version="1.1" xmlns:xlink="http://www.w3.org/1999/xlink" xmlns:svgjs="http://svgjs.dev/svgjs" width="2000" height="272" viewBox="0 0 2000 272"><g transform="matrix(1,0,0,1,-1.2121212121212466,0.8569284129052335)"><svg viewBox="0 0 396 54" data-background-color="#ffffff" preserveAspectRatio="xMidYMid meet" height="272" width="2000" xmlns="http://www.w3.org/2000/svg" xmlns:xlink="http://www.w3.org/1999/xlink"><g id="tight-bounds" transform="matrix(1,0,0,1,0.2400000000000091,-0.17012549373853858)"><svg viewBox="0 0 395.52 54.34024308833142" height="54.34024308833142" width="395.52"><g><svg viewBox="0 0 474.73098653786144 65.22299051888851" height="54.34024308833142" width="395.52"><g transform="matrix(1,0,0,1,79.21098653786143,17.798473161716274)"><svg viewBox="0 0 395.52 29.626044195455957" height="29.626044195455957" width="395.52"><g id="textblocktransform"><svg viewBox="0 0 395.52 29.626044195455957" height="29.626044195455957" width="395.52" id="textblock"><g><svg viewBox="0 0 395.52 29.626044195455957" height="29.626044195455957" width="395.52"><g transform="matrix(1,0,0,1,0,0)"><svg width="395.52" viewBox="3.8499999046325684 -35.5 481.9100036621094 36.099998474121094" height="29.626044195455957" data-palette-color="#3363ff"><path d="M11.45-12.8L11.45 0 3.85 0 3.85-34.9 20.4-34.9Q22.8-34.9 24.75-34.1 26.7-33.3 28.08-31.83 29.45-30.35 30.2-28.3 30.95-26.25 30.95-23.75L30.95-23.75Q30.95-20.2 29.38-17.55 27.8-14.9 24.6-13.7L24.6-13.7 31.45 0 23 0 16.9-12.8 11.45-12.8ZM11.45-19.2L19.45-19.2Q21.15-19.2 22.13-20.08 23.1-20.95 23.1-22.65L23.1-22.65 23.1-24.85Q23.1-26.55 22.13-27.43 21.15-28.3 19.45-28.3L19.45-28.3 11.45-28.3 11.45-19.2ZM61.3 0L37.55 0 37.55-34.9 61.3-34.9 61.3-28.15 45.15-28.15 45.15-21 59-21 59-14.3 45.15-14.3 45.15-6.75 61.3-6.75 61.3 0ZM82 0.6L82 0.6Q78.45 0.6 75.6-0.53 72.75-1.65 70.75-3.88 68.75-6.1 67.65-9.43 66.55-12.75 66.55-17.2L66.55-17.2Q66.55-21.6 67.65-25.03 68.75-28.45 70.75-30.78 72.75-33.1 75.6-34.3 78.45-35.5 82-35.5L82-35.5Q86.85-35.5 90-33.52 93.15-31.55 95.05-27.3L95.05-27.3 88.5-23.9Q87.8-26.1 86.32-27.43 84.85-28.75 82-28.75L82-28.75Q78.65-28.75 76.62-26.58 74.6-24.4 74.6-20.25L74.6-20.25 74.6-14.65Q74.6-10.5 76.62-8.33 78.65-6.15 82-6.15L82-6.15Q84.8-6.15 86.47-7.68 88.15-9.2 88.95-11.35L88.95-11.35 95.15-7.75Q93.2-3.75 90.02-1.58 86.85 0.6 82 0.6ZM115.69 0L99.09 0 99.09-6.05 103.59-6.05 103.59-28.85 99.09-28.85 99.09-34.9 115.69-34.9 115.69-28.85 111.19-28.85 111.19-6.05 115.69-6.05 115.69 0ZM129.64 0L122.04 0 122.04-34.9 138.54-34.9Q140.99-34.9 142.94-34.08 144.89-33.25 146.27-31.8 147.64-30.35 148.39-28.28 149.14-26.2 149.14-23.75L149.14-23.75Q149.14-21.25 148.39-19.2 147.64-17.15 146.27-15.7 144.89-14.25 142.94-13.43 140.99-12.6 138.54-12.6L138.54-12.6 129.64-12.6 129.64 0ZM129.64-28.3L129.64-19.2 137.64-19.2Q139.34-19.2 140.32-20.08 141.29-20.95 141.29-22.65L141.29-22.65 141.29-24.85Q141.29-26.55 140.32-27.43 139.34-28.3 137.64-28.3L137.64-28.3 129.64-28.3ZM178.59 0L154.84 0 154.84-34.9 178.59-34.9 178.59-28.15 162.44-28.15 162.44-21 176.29-21 176.29-14.3 162.44-14.3 162.44-6.75 178.59-6.75 178.59 0ZM219.13 0L219.13-5.55 218.88-5.55Q218.48-2.9 216.18-1.15 213.88 0.6 209.93 0.6L209.93 0.6Q206.93 0.6 204.33-0.55 201.73-1.7 199.78-3.95 197.83-6.2 196.73-9.55 195.63-12.9 195.63-17.3L195.63-17.3Q195.63-21.7 196.78-25.1 197.93-28.5 200.01-30.8 202.08-33.1 204.98-34.3 207.88-35.5 211.43-35.5L211.43-35.5Q216.13-35.5 219.53-33.48 222.93-31.45 224.88-27.4L224.88-27.4 218.68-23.85Q217.88-25.9 216.18-27.33 214.48-28.75 211.43-28.75L211.43-28.75Q207.88-28.75 205.78-26.7 203.68-24.65 203.68-20.25L203.68-20.25 203.68-14.65Q203.68-10.3 205.78-8.22 207.88-6.15 211.43-6.15L211.43-6.15Q212.83-6.15 214.08-6.48 215.33-6.8 216.28-7.48 217.23-8.15 217.76-9.1 218.28-10.05 218.28-11.35L218.28-11.35 218.28-13.1 211.78-13.1 211.78-19.45 225.53-19.45 225.53 0 219.13 0ZM256.68 0L232.93 0 232.93-34.9 256.68-34.9 256.68-28.15 240.53-28.15 240.53-21 254.38-21 254.38-14.3 240.53-14.3 240.53-6.75 256.68-6.75 256.68 0ZM283.48 0L273.93-16.5 270.58-23.5 270.43-23.5 270.43 0 263.28 0 263.28-34.9 271.58-34.9 281.13-18.4 284.48-11.4 284.63-11.4 284.63-34.9 291.78-34.9 291.78 0 283.48 0ZM323.23 0L299.48 0 299.48-34.9 323.23-34.9 323.23-28.15 307.08-28.15 307.08-21 320.93-21 320.93-14.3 307.08-14.3 307.08-6.75 323.23-6.75 323.23 0ZM337.42-12.8L337.42 0 329.82 0 329.82-34.9 346.37-34.9Q348.77-34.9 350.72-34.1 352.67-33.3 354.05-31.83 355.42-30.35 356.17-28.3 356.92-26.25 356.92-23.75L356.92-23.75Q356.92-20.2 355.35-17.55 353.77-14.9 350.57-13.7L350.57-13.7 357.42 0 348.97 0 342.87-12.8 337.42-12.8ZM337.42-19.2L345.42-19.2Q347.12-19.2 348.1-20.08 349.07-20.95 349.07-22.65L349.07-22.65 349.07-24.85Q349.07-26.55 348.1-27.43 347.12-28.3 345.42-28.3L345.42-28.3 337.42-28.3 337.42-19.2ZM392.92 0L385.02 0 382.52-8.3 370.87-8.3 368.37 0 360.67 0 372.17-34.9 381.57-34.9 392.92 0ZM380.67-14.75L376.77-28 376.52-28 372.67-14.75 380.67-14.75ZM418.52-28.15L409.07-28.15 409.07 0 401.47 0 401.47-28.15 392.02-28.15 392.02-34.9 418.52-34.9 418.52-28.15ZM436.47 0.6L436.47 0.6Q433.02 0.6 430.17-0.55 427.32-1.7 425.32-3.98 423.32-6.25 422.22-9.63 421.12-13 421.12-17.45L421.12-17.45Q421.12-21.9 422.22-25.28 423.32-28.65 425.32-30.93 427.32-33.2 430.17-34.35 433.02-35.5 436.47-35.5L436.47-35.5Q439.92-35.5 442.77-34.35 445.62-33.2 447.62-30.93 449.62-28.65 450.72-25.28 451.82-21.9 451.82-17.45L451.82-17.45Q451.82-13 450.72-9.63 449.62-6.25 447.62-3.98 445.62-1.7 442.77-0.55 439.92 0.6 436.47 0.6ZM436.47-6.15L436.47-6.15Q439.92-6.15 441.84-8.4 443.77-10.65 443.77-14.85L443.77-14.85 443.77-20.05Q443.77-24.25 441.84-26.5 439.92-28.75 436.47-28.75L436.47-28.75Q433.02-28.75 431.09-26.5 429.17-24.25 429.17-20.05L429.17-20.05 429.17-14.85Q429.17-10.65 431.09-8.4 433.02-6.15 436.47-6.15ZM465.76-12.8L465.76 0 458.16 0 458.16-34.9 474.71-34.9Q477.11-34.9 479.06-34.1 481.01-33.3 482.39-31.83 483.76-30.35 484.51-28.3 485.26-26.25 485.26-23.75L485.26-23.75Q485.26-20.2 483.69-17.55 482.11-14.9 478.91-13.7L478.91-13.7 485.76 0 477.31 0 471.21-12.8 465.76-12.8ZM465.76-19.2L473.76-19.2Q475.46-19.2 476.44-20.08 477.41-20.95 477.41-22.65L477.41-22.65 477.41-24.85Q477.41-26.55 476.44-27.43 475.46-28.3 473.76-28.3L473.76-28.3 465.76-28.3 465.76-19.2Z" opacity="1" transform="matrix(1,0,0,1,0,0)" fill="#000000" class="undefined-text-0" data-fill-palette-color="primary" id="text-0"></path></svg></g></svg></g></svg></g></svg></g><g><svg viewBox="0 0 65.22299051888851 65.22299051888851" height="65.22299051888851" width="65.22299051888851"><g><svg></svg></g><g id="icon-0"><svg viewBox="0 0 65.22299051888851 65.22299051888851" height="65.22299051888851" width="65.22299051888851"><g><path d="M0 32.611c0-18.011 14.601-32.611 32.611-32.611 18.011 0 32.611 14.601 32.612 32.611 0 18.011-14.601 32.611-32.611 32.612-18.011 0-32.611-14.601-32.612-32.611zM32.611 62.551c16.535 0 29.94-13.405 29.94-29.94 0-16.535-13.405-29.94-29.939-29.939-16.535 0-29.94 13.405-29.94 29.939 0 16.535 13.405 29.94 29.94 29.94z" data-fill-palette-color="accent" fill="#000000" stroke="transparent"></path></g><g transform="matrix(1,0,0,1,21.335689085531012,20.082821732873985)"><svg viewBox="0 0 22.551612347826484 25.05734705314054" height="25.05734705314054" width="22.551612347826484"><g><svg xmlns="http://www.w3.org/2000/svg" viewBox="11.999999046325684 7.999999523162842 72 80" x="0" y="0" height="25.05734705314054" width="22.551612347826484" class="icon-s-0" data-fill-palette-color="accent" id="s-0"><g fill="#3363ff" data-fill-palette-color="accent"><path d="M82 8H20a8.009 8.009 0 0 0-8 8V80a8.009 8.009 0 0 0 8 8H82a1.999 1.999 0 0 0 2-2V10A1.999 1.999 0 0 0 82 8ZM20 12H80V72H20a7.907 7.907 0 0 0-4 1.113V16A4.004 4.004 0 0 1 20 12ZM80 84H20a4 4 0 0 1 0-8H80Z" fill="#000000" data-fill-palette-color="accent"></path><path d="M32 41.959V58a1.999 1.999 0 0 0 2 2H62a1.999 1.999 0 0 0 2-2V41.959A9.973 9.973 0 0 0 58 24a9.895 9.895 0 0 0-1.699 0.213 10.283 10.283 0 0 0-16.602 0A9.895 9.895 0 0 0 38 24a9.973 9.973 0 0 0-6 17.959ZM36 56V52H60v4Zm1.666-27.966A12.819 12.819 0 0 0 37 32a2 2 0 0 0 4 0c0-4.412 3.141-8 7-8s7 3.588 7 8a2 2 0 0 0 4 0 12.819 12.819 0 0 0-0.666-3.966 5.959 5.959 0 0 1 2.658 11.128A2.001 2.001 0 0 0 60 40.891V48H36V40.891a2.001 2.001 0 0 0-0.992-1.729A5.959 5.959 0 0 1 37.666 28.034Z" fill="#000000" data-fill-palette-color="accent"></path></g></svg></g></svg></g></svg></g></svg></g></svg></g><defs></defs></svg><rect width="395.52" height="54.34024308833142" fill="none" stroke="none" visibility="hidden"></rect></g></svg></g></svg>